<svg xmlns="http://www.w3.org/2000/svg" width="48" height="48" viewBox="0 0 48 48" fill="none">
  <circle cx="24" cy="24.0039" r="23.5417" fill="white" stroke="url(#paint0_linear_12065_13806)" stroke-width="0.916667"/>
  <path d="M32.2533 30.5573C33.0669 30.8236 33.7363 31.2008 34.2578 31.689C34.3724 31.7704 34.4279 31.8628 34.4279 31.9701C34.4279 32.1439 34.2984 32.3103 34.0359 32.473C33.7289 32.6654 33.2703 33.0056 32.6638 33.4938C32.1017 33.9413 31.6468 34.2667 31.3028 34.4738C31.2363 34.5071 31.1697 34.5256 31.1031 34.5256C31.0033 34.5256 30.9145 34.4886 30.8442 34.422C30.7703 34.3518 30.7333 34.2704 30.7333 34.178C30.7333 34.0966 30.7629 34.0263 30.8221 33.9561C30.9034 33.8229 31.0883 33.675 31.3842 33.516C31.5765 33.4161 31.8169 33.2534 32.1054 33.0241C32.453 32.743 32.6934 32.5581 32.8265 32.473C33.1187 32.3251 33.2666 32.2216 33.2666 32.1624C33.2666 32.1476 33.2629 32.1365 33.2555 32.1217C33.0965 31.8406 32.8302 31.6298 32.4641 31.4893C32.1386 31.3968 31.8058 31.3007 31.473 31.1971C31.0809 31.0788 30.7888 30.9087 30.6002 30.6868C30.5854 30.6683 30.5817 30.6424 30.5817 30.6165C30.5817 30.5351 30.6297 30.4464 30.7222 30.3502C30.8147 30.2541 30.9071 30.206 30.9922 30.206C31.044 30.1912 31.0994 30.1875 31.1512 30.1875C31.3065 30.1875 31.4951 30.2356 31.7207 30.328C31.8946 30.402 32.0721 30.476 32.2533 30.5573ZM16.628 30.2282C16.7797 30.2282 16.9054 30.2689 17.0052 30.3502C17.1014 30.4316 17.1495 30.524 17.1495 30.6313C17.1495 30.7127 17.1199 30.7829 17.0607 30.8421C16.8388 31.0825 16.3876 31.3414 15.6998 31.615C15.0636 31.8702 14.6383 32.1624 14.4164 32.4952C14.79 32.7208 15.2818 32.9686 15.8884 33.2349C16.8573 33.6676 17.3566 33.8932 17.3899 33.908C17.5156 33.9672 17.5785 34.0633 17.5785 34.2001C17.5933 34.3666 17.5267 34.5071 17.3825 34.6254C17.2382 34.7438 17.0718 34.7993 16.8869 34.7993C16.8129 34.7993 16.7427 34.7845 16.6761 34.7586C16.5947 34.6772 16.4875 34.5848 16.347 34.4775C15.4668 33.9967 14.5237 33.5381 13.5215 33.1054C13.4216 33.0648 13.3218 33.0278 13.2219 32.9945C13.0962 32.9353 13.0222 32.8466 13 32.7356C13 32.4472 13.1257 32.1809 13.3809 31.9331C13.6879 31.6853 14.1945 31.4042 14.9046 31.0825C15.5925 30.7755 16.0881 30.4908 16.3987 30.2319C16.3987 30.2282 16.4727 30.2282 16.628 30.2282Z" fill="#5B4538"/>
  <path d="M22.9114 30.2131C22.745 29.9728 22.5897 29.8026 22.4492 29.7028C22.3086 29.6029 22.1459 29.5549 21.9573 29.5549C21.8907 29.5549 21.8315 29.5659 21.7835 29.5844L20.674 29.9691C20.6111 29.9912 20.5371 29.9986 20.4558 29.9986C20.3078 29.9986 20.1895 29.9654 20.1007 29.8951C20.0083 29.8285 19.8973 29.6917 19.7679 29.4883L19.4609 29.6917C19.6532 29.9691 19.8197 30.154 19.9528 30.2427C20.0896 30.3352 20.2598 30.3796 20.4706 30.3796C20.563 30.3796 20.6555 30.3648 20.7442 30.3389L21.7613 29.9691C21.8278 29.9432 21.9018 29.9284 21.9795 29.9284C22.1089 29.9284 22.2162 29.9543 22.2938 30.0097C22.3715 30.0615 22.4824 30.1836 22.623 30.3759L22.9114 30.2131Z" fill="#5B4538"/>
  <path fill-rule="evenodd" clip-rule="evenodd" d="M30.408 36.3389C30.9664 39.6747 26.8872 39.9965 25.2119 38.4987C24.0543 37.4632 24.3797 36.0245 26.0403 36.1133C27.5011 36.191 28.3628 38.0771 30.408 36.3389Z" fill="#5B4538"/>
  <path fill-rule="evenodd" clip-rule="evenodd" d="M18.0185 36.3389C17.4601 39.6747 21.5393 39.9965 23.2146 38.4987C24.3722 37.4632 24.0467 36.0245 22.3862 36.1133C20.9254 36.191 20.0637 38.0771 18.0185 36.3389Z" fill="#5B4538"/>
  <path d="M22.0239 31.5007C21.8389 31.3713 21.6097 31.3047 21.336 31.3047C21.0068 31.3047 20.7406 31.4045 20.5335 31.6006C20.2931 31.8188 20.2006 32.1294 20.2561 32.5362C20.2894 32.8654 20.4077 33.1538 20.6074 33.4053C20.8108 33.6568 21.0549 33.7825 21.336 33.7825C21.5098 33.7825 21.691 33.7345 21.8759 33.6346C22.2051 33.4386 22.3678 33.0614 22.3678 32.5029C22.3678 32 22.2532 31.6671 22.0239 31.5007ZM21.3212 32.8284C21.1289 32.8284 20.9699 32.6731 20.9699 32.477C20.9699 32.2847 21.1252 32.1257 21.3212 32.1257C21.5135 32.1257 21.6725 32.281 21.6725 32.477C21.6725 32.6731 21.5135 32.8284 21.3212 32.8284Z" fill="#5B4538"/>
  <path d="M24.4648 35.8317C24.5684 35.8317 24.6682 35.8132 24.7607 35.7763C24.8532 35.7393 24.9382 35.6949 25.0159 35.6357C25.0936 35.5765 25.1638 35.51 25.2267 35.4397C25.2896 35.3657 25.345 35.2955 25.3894 35.2178C25.4375 35.1438 25.4745 35.0736 25.5041 35.0033C25.5336 34.9367 25.5558 34.8813 25.5669 34.8332C25.5632 34.8258 25.5595 34.8147 25.5521 34.7999C25.5447 34.7888 25.5373 34.7777 25.5336 34.7666C25.5263 34.7592 25.5189 34.7555 25.5152 34.7555C25.4264 34.9182 25.3302 35.0514 25.2193 35.1549C25.1083 35.2585 24.9863 35.3325 24.8569 35.3805C24.7237 35.4286 24.5795 35.4508 24.4279 35.4508C24.2947 35.4508 24.1764 35.4323 24.0728 35.399C23.9656 35.3657 23.8731 35.314 23.7881 35.2511C23.703 35.1845 23.629 35.1069 23.5588 35.0181C23.4922 34.9293 23.4293 34.8258 23.3738 34.7148C23.3701 34.7148 23.3664 34.7185 23.3591 34.7259C23.3517 34.7333 23.3443 34.7444 23.3406 34.7555C23.3332 34.7666 23.3332 34.774 23.3295 34.7814C23.3812 34.9256 23.4441 35.0588 23.5218 35.1882C23.5957 35.314 23.6808 35.4249 23.777 35.5211C23.8731 35.6172 23.9767 35.6949 24.095 35.7504C24.206 35.7984 24.3317 35.828 24.4648 35.8317Z" fill="#5B4538"/>
  <path d="M27.7155 31.4773C27.5306 31.3478 27.3013 31.2812 27.0276 31.2812C26.6985 31.2812 26.4322 31.3811 26.2251 31.5771C25.9847 31.7953 25.8923 32.1097 25.9477 32.5128C25.981 32.8419 26.0994 33.1304 26.2991 33.3819C26.5025 33.6334 26.7466 33.7591 27.0276 33.7591C27.2015 33.7591 27.3827 33.711 27.5676 33.6112C27.8967 33.4152 28.0595 33.0379 28.0595 32.4795C28.0632 31.9728 27.9485 31.64 27.7155 31.4773ZM26.9093 32.8678C26.717 32.8678 26.5579 32.7088 26.5579 32.5165C26.5579 32.3242 26.7133 32.1651 26.9093 32.1651C27.1016 32.1651 27.2606 32.3205 27.2606 32.5165C27.2606 32.7125 27.1016 32.8678 26.9093 32.8678Z" fill="#5B4538"/>
  <path d="M30.1266 27.4995C30.6962 27.2517 30.9883 25.3286 31.3729 23.5386C32.7598 20.3692 35.8553 18.0356 35.6703 15.0881C33.1296 10.1139 29.5719 9.93634 28.0482 9.54063C26.0733 9.1745 24.1021 8.90452 22.1309 9.18929C20.7293 9.39639 18.9134 10.7463 17.2344 10.8609C15.633 11.3898 15.2336 12.0924 14.7861 12.7101C14.2868 13.7974 14.1722 14.881 14.4163 15.9683C15.0302 17.9209 15.9733 19.6961 16.2654 21.8226C16.9126 22.9654 16.957 25.1252 18.4363 26.5749C22.963 24.4188 26.6613 26.0905 30.1266 27.4995Z" fill="url(#paint1_linear_12065_13806)"/>
  <path d="M30.0713 27.5191L29.646 27.3453C26.2473 25.9584 22.7302 24.5198 18.3958 26.5871L18.3699 26.5982L18.3514 26.5797C17.3862 25.633 17.0311 24.4088 16.7205 23.3252C16.5541 22.7557 16.3987 22.2195 16.1731 21.8163L16.1694 21.8015C15.9734 20.3888 15.4853 19.1055 15.0119 17.8666C14.7752 17.2453 14.5274 16.6018 14.324 15.9509C14.0762 14.8488 14.2019 13.743 14.6938 12.6668C14.7308 12.615 14.7641 12.5669 14.7974 12.5188C15.2079 11.9419 15.6702 11.2873 17.1643 10.7954C18.0888 10.7289 19.043 10.2962 19.9639 9.87827C20.7183 9.53432 21.4321 9.21257 22.0682 9.12012C23.9432 8.85014 25.7924 9.06464 27.9929 9.47145C28.1704 9.51583 28.3664 9.56021 28.592 9.60829C30.2673 9.96333 33.385 10.6179 35.6409 15.0411L35.6446 15.0559C35.7593 16.8902 34.6165 18.4879 33.4035 20.178C32.6527 21.2283 31.8724 22.3156 31.3435 23.525C31.2843 23.806 31.2252 24.0982 31.166 24.3867C30.8479 25.9436 30.5743 27.2898 30.075 27.508L30.0713 27.5191ZM22.8079 25.474C25.2709 25.474 27.4973 26.3837 29.6793 27.275L30.0713 27.434C30.5225 27.2121 30.8036 25.8327 31.1031 24.3756C31.1623 24.0871 31.2215 23.7949 31.2843 23.5065C31.8206 22.2823 32.6009 21.1913 33.3554 20.1373C34.5573 18.4583 35.6927 16.8754 35.5818 15.0707C33.3369 10.6919 30.3635 10.0669 28.5846 9.68965C28.3553 9.64158 28.1593 9.60089 27.9818 9.55282C25.7924 9.1497 23.9469 8.9352 22.083 9.20518C21.458 9.29763 20.7516 9.61939 20.0009 9.95593C19.0726 10.3775 18.1147 10.8102 17.1828 10.8768C15.7219 11.3613 15.2671 12.0011 14.8639 12.5706C14.8307 12.6187 14.7974 12.6631 14.7641 12.7112C14.2796 13.7652 14.1576 14.8562 14.4017 15.9361C14.6051 16.5833 14.8491 17.2231 15.0895 17.8444C15.5629 19.0833 16.0548 20.3666 16.2508 21.7868C16.4801 22.1936 16.6354 22.7335 16.8018 23.3031C17.1088 24.3682 17.4601 25.5738 18.3958 26.5058C19.9602 25.7624 21.421 25.474 22.8079 25.474Z" fill="#C8BCA8"/>
  <path fill-rule="evenodd" clip-rule="evenodd" d="M18.5657 27.8289C20.1967 26.9635 24.2796 24.8222 29.7457 28.576C29.901 27.6958 29.9158 26.8156 29.7937 25.9354C29.6384 23.8532 21.48 21.3051 18.5214 25.891L18.5657 27.8289Z" fill="url(#paint2_linear_12065_13806)"/>
  <path d="M29.7605 28.606L29.7383 28.5912C27.3973 26.9824 25.0378 26.276 22.7189 26.4868C20.8032 26.6607 19.3535 27.4299 18.5732 27.8441L18.551 27.8552V27.8293L18.5066 25.8877L18.5103 25.884C19.3091 24.6488 20.5185 23.8426 22.1124 23.4949C23.4179 23.2065 24.9416 23.2545 26.4024 23.6281C28.3477 24.1236 29.7494 25.0741 29.8123 25.9358C29.9343 26.8123 29.9195 27.7036 29.7642 28.5801L29.7605 28.606ZM23.5215 26.4166C25.5777 26.4166 27.6636 27.1303 29.7346 28.5505C29.8825 27.6851 29.8973 26.8049 29.7753 25.9395C29.7124 25.1037 28.2886 24.1421 26.3876 23.6576C24.9342 23.2878 23.4142 23.2397 22.1124 23.5245C20.5296 23.8721 19.3239 24.671 18.5325 25.8951L18.5769 27.7997C19.3646 27.3818 20.8069 26.6237 22.7115 26.4499C22.9852 26.4277 23.2552 26.4166 23.5215 26.4166Z" fill="#C8BCA8"/>
  <path fill-rule="evenodd" clip-rule="evenodd" d="M16.2692 12.3797C16.0177 13.6482 17.142 17.6534 16.7648 19.754C16.5725 18.652 15.8698 16.4663 15.8994 15.2347C15.5591 14.4951 15.2189 13.6001 14.8454 13.2562C14.5088 12.9492 15.6183 11.1185 16.2692 12.3797Z" fill="url(#paint3_linear_12065_13806)"/>
  <path d="M18.8321 25.2715C18.8284 25.2678 18.8284 25.2678 18.8284 25.2641C17.3491 23.5333 16.7389 20.5524 16.2248 18.0413C15.818 16.0479 15.4704 14.3467 14.7973 13.8105L14.7936 13.8068C14.7085 13.6958 14.6605 13.5664 14.642 13.4295C14.6087 13.1928 14.6679 12.934 14.7899 12.6936C14.9083 12.4532 15.0895 12.2387 15.304 12.0907C15.4519 11.9872 15.6183 11.9206 15.7884 11.8984L15.7921 11.9317C15.6257 11.9502 15.4667 12.0205 15.3225 12.1166C15.1634 12.3348 15.0451 12.4754 14.9267 12.7084C14.5976 13.3667 15.2818 13.3334 15.5518 13.6921C16.2322 14.2395 16.2877 16.0331 16.6982 18.0339C17.2123 20.5413 17.3787 23.5185 18.8506 25.2419C18.8543 25.2456 18.8543 25.2456 18.8543 25.2493L18.8321 25.2715Z" fill="#A99675"/>
  <path fill-rule="evenodd" clip-rule="evenodd" d="M18.7766 11.8606C18.5252 13.1291 19.1687 16.0396 18.7951 18.144C18.6028 17.0419 17.9001 14.8562 17.9297 13.6247C17.5895 12.885 17.1827 12.0418 16.9423 11.6054C16.7241 11.2134 17.8484 10.6845 18.7766 11.8606Z" fill="url(#paint4_linear_12065_13806)"/>
  <path d="M18.2848 11.4173C17.9631 11.1991 17.8336 11.2102 17.5563 11.2472C17.4416 11.262 17.3455 11.2989 17.2715 11.3507C17.1975 11.4025 17.1495 11.4765 17.1347 11.5652C17.1199 11.6983 17.0311 11.7205 17.1532 11.9646C17.9742 13.0778 18.5992 14.9233 18.773 16.887C18.9912 19.376 18.7027 22.1349 20.3522 24.0876L20.3263 24.1098C18.6695 22.146 18.4254 19.3834 18.2072 16.8907C18.0334 14.9307 17.8743 13.137 17.0607 12.0312C16.8906 11.8019 16.8388 11.6133 16.8647 11.4654C16.8832 11.3655 16.935 11.2878 17.0163 11.2287C17.094 11.1695 17.1975 11.1325 17.3196 11.1177C17.6044 11.0807 17.9779 11.1658 18.307 11.3914L18.2848 11.4173Z" fill="#A99675"/>
  <path d="M22.8114 9.63722C23.5733 10.9094 22.1716 16.6344 21.9239 20.2328C21.9017 20.5361 19.2167 8.35761 22.8114 9.63722Z" fill="url(#paint5_linear_12065_13806)"/>
  <path d="M22.4897 23.4084C21.6206 21.145 20.6887 17.2175 20.5444 14.1183C20.489 12.8979 20.5518 11.8032 20.7922 10.9895C21.0326 10.1722 21.4505 9.63967 22.0977 9.54352C22.3085 9.51023 22.5452 9.52872 22.8078 9.59529L22.7967 9.62858C22.5378 9.56201 22.2974 9.61748 22.0903 9.65077C21.5504 9.77281 21.6132 10.1131 21.2582 10.8786C21.0215 11.6885 20.8884 12.6908 20.9956 13.9112C21.4579 16.9327 22.0238 21.0526 22.5156 23.3973L22.4897 23.4084Z" fill="#B5A584"/>
  <path d="M25.0194 23.2116C24.9861 22.9675 24.9528 22.716 24.9158 22.4609C24.35 18.3853 23.6584 13.4 26.0845 9.81641L26.1141 9.8349C25.1192 12.4866 24.9861 17.5347 24.8678 19.1657C24.816 19.8684 24.8973 21.3773 24.9528 22.4535C24.9861 22.7049 25.0231 22.9564 25.0564 23.2042L25.0194 23.2116Z" fill="#CABB9C"/>
  <path d="M27.6526 23.7352C27.7376 21.6235 27.9632 19.153 28.1666 17.0117C28.677 14.312 30.0491 13.0361 30.4078 10.3067L30.4152 10.2734C29.106 12.4074 28.3774 14.7151 27.9965 17.0191C27.6193 19.3232 27.5897 21.6235 27.6896 23.7352H27.6526Z" fill="url(#paint6_linear_12065_13806)"/>
  <path d="M33.9987 13.5156C32.9077 16.9033 31.5985 20.2132 30.2782 23.5639C30.3152 19.1296 32.6932 13.7893 33.9987 13.5156Z" fill="url(#paint7_linear_12065_13806)"/>
  <path d="M29.6532 25.0617C30.2301 24.4589 30.2708 23.5343 30.3226 22.4618C30.367 21.4707 30.4187 20.3538 30.9032 19.248C30.9143 19.2073 30.9365 19.1371 30.9624 19.0409C31.2841 17.9203 32.5711 13.4158 34.0727 13.4972L34.069 13.5305C32.8892 13.4861 31.3914 17.9425 31.0364 19.0557C31.0105 19.1482 31.0031 19.2073 30.9883 19.2517V19.2554C30.5667 20.3538 30.5408 21.4744 30.4003 22.4618C30.3522 23.538 30.2597 24.47 29.6754 25.0802L29.6532 25.0617Z" fill="#A99675"/>
  <defs>
    <linearGradient id="paint0_linear_12065_13806" x1="-78.72" y1="-74.349" x2="69.3863" y2="-37.1542" gradientUnits="userSpaceOnUse">
      <stop stop-color="#053447"/>
      <stop offset="1" stop-color="#9BB5E2"/>
    </linearGradient>
    <linearGradient id="paint1_linear_12065_13806" x1="14.2926" y1="18.2843" x2="35.6773" y2="18.2843" gradientUnits="userSpaceOnUse">
      <stop offset="0.0397" stop-color="#F9F9EC"/>
      <stop offset="0.4183" stop-color="#F9F9EC"/>
      <stop offset="0.4932" stop-color="#F3F1E2"/>
      <stop offset="0.6217" stop-color="#E4DDC6"/>
      <stop offset="0.7873" stop-color="#CCBC9A"/>
      <stop offset="0.7969" stop-color="#CABA97"/>
      <stop offset="1" stop-color="#BAA685"/>
    </linearGradient>
    <linearGradient id="paint2_linear_12065_13806" x1="18.521" y1="25.9508" x2="29.8764" y2="25.9508" gradientUnits="userSpaceOnUse">
      <stop stop-color="#F9F9EC"/>
      <stop offset="0.0526" stop-color="#F9F9EC"/>
      <stop offset="0.3844" stop-color="#F9F9EC"/>
      <stop offset="0.5145" stop-color="#F5F4E5"/>
      <stop offset="0.7094" stop-color="#EAE5D0"/>
      <stop offset="0.9441" stop-color="#D9CCAF"/>
      <stop offset="0.9987" stop-color="#D4C6A6"/>
    </linearGradient>
    <linearGradient id="paint3_linear_12065_13806" x1="14.7832" y1="15.85" x2="16.8432" y2="15.85" gradientUnits="userSpaceOnUse">
      <stop stop-color="#E8DBCA"/>
      <stop offset="1" stop-color="#F2ECDE"/>
    </linearGradient>
    <linearGradient id="paint4_linear_12065_13806" x1="17.8306" y1="13.6111" x2="18.9615" y2="15.2613" gradientUnits="userSpaceOnUse">
      <stop stop-color="#ECE1D1"/>
      <stop offset="0.4318" stop-color="#EEE6D9"/>
      <stop offset="1" stop-color="#EFE9DE"/>
    </linearGradient>
    <linearGradient id="paint5_linear_12065_13806" x1="20.9395" y1="14.8914" x2="23.0343" y2="14.8914" gradientUnits="userSpaceOnUse">
      <stop stop-color="#ECE1D1"/>
      <stop offset="1" stop-color="#EDE4D5"/>
    </linearGradient>
    <linearGradient id="paint6_linear_12065_13806" x1="29.0447" y1="14.7474" x2="28.9905" y2="17.5168" gradientUnits="userSpaceOnUse">
      <stop stop-color="#BAA68A"/>
      <stop offset="1" stop-color="#C7BAA0"/>
    </linearGradient>
    <linearGradient id="paint7_linear_12065_13806" x1="30.279" y1="18.5398" x2="33.9982" y2="18.5398" gradientUnits="userSpaceOnUse">
      <stop stop-color="#BDAE99"/>
      <stop offset="0.2551" stop-color="#BFB19C"/>
      <stop offset="1" stop-color="#C2B5A1"/>
    </linearGradient>
  </defs>
</svg>