<svg xmlns="http://www.w3.org/2000/svg" width="48" height="48" viewBox="0 0 48 48" fill="none">
  <circle cx="24" cy="24" r="23.5417" fill="white" stroke="url(#paint0_linear_12062_10845)" stroke-width="0.916667"/>
  <path d="M28.22 30.5267C28.764 29.9835 29.6447 29.9849 30.187 30.5299C30.7293 31.0749 30.7279 31.9571 30.1838 32.5003L27.768 34.9126C25.5392 37.1382 21.9047 37.1705 19.6383 34.9876C19.6252 34.9751 18.616 33.9855 15.2868 30.721C13.072 28.5493 12.8514 25.0743 14.9356 22.8427L18.8216 18.6818C20.8901 16.4668 24.7032 16.2247 27.0683 18.1373L30.5977 20.9917C31.1954 21.4751 31.2888 22.3523 30.8062 22.951C30.3237 23.5498 29.448 23.6433 28.8503 23.1599L25.3209 20.3056C24.084 19.3053 21.9203 19.4427 20.853 20.5856L16.9669 24.7465C15.9523 25.8329 16.0634 27.5831 17.2327 28.7296C19.6774 31.1268 21.5615 32.9742 21.5637 32.9763C22.742 34.1112 24.6472 34.0942 25.8041 32.939L28.22 30.5267Z" fill="#FFA116"/>
  <path fill-rule="evenodd" clip-rule="evenodd" d="M22.3511 28.1148C21.5829 28.1148 20.9602 27.491 20.9602 26.7215C20.9602 25.9519 21.5829 25.3281 22.3511 25.3281H32.609C33.3772 25.3281 33.9999 25.9519 33.9999 26.7215C33.9999 27.491 33.3772 28.1148 32.609 28.1148H22.3511Z" fill="#B3B3B3"/>
  <path fill-rule="evenodd" clip-rule="evenodd" d="M24.2723 12.8477C24.7971 12.2857 25.6773 12.2564 26.2382 12.7821C26.7992 13.3078 26.8285 14.1895 26.3037 14.7515L16.967 24.7488C15.9523 25.8351 16.0634 27.5852 17.2327 28.7318L21.5445 32.96C22.0934 33.4982 22.1028 34.3804 21.5655 34.9303C21.0281 35.4802 20.1475 35.4896 19.5986 34.9513L15.2867 30.7232C13.072 28.5514 12.8514 25.0763 14.9357 22.8449L24.2723 12.8477Z" fill="black"/>
  <defs>
    <linearGradient id="paint0_linear_12062_10845" x1="-78.72" y1="-74.3529" x2="69.3863" y2="-37.1581" gradientUnits="userSpaceOnUse">
      <stop stop-color="#053447"/>
      <stop offset="1" stop-color="#9BB5E2"/>
    </linearGradient>
  </defs>
</svg>